<svg width="960" height="540" viewBox="0 0 960 540" fill="none" xmlns="http://www.w3.org/2000/svg"><rect width="960" height="540" rx="40" fill="#080E1C"/><path d="M116 385h728" stroke="#38BDF8" stroke-opacity=".3" stroke-width="2"/><path d="M198 330c31-87 108-127 246-127h90c113 0 190 42 232 127h45c25 0 45 20 45 45v10H104v-10c0-25 20-45 45-45h49Z" fill="#60A5FA"/><path d="M334 226h219c60 0 110 31 145 82H262c18-47 42-75 72-82Z" fill="#0F172A"/><path d="M365 244h99v64H299c16-34 36-55 66-64Z" fill="#BAE6FD" fill-opacity=".56"/><path d="M491 244h62c44 0 80 22 108 64H491v-64Z" fill="#BAE6FD" fill-opacity=".48"/><circle cx="292" cy="387" r="55" fill="#020617" stroke="#475569" stroke-width="13"/><circle cx="686" cy="387" r="55" fill="#020617" stroke="#475569" stroke-width="13"/><text x="80" y="108" fill="#E2E8F0" font-family="Arial" font-size="42" font-weight="700">Xiaomi SU7</text></svg>
